<svg xmlns="http://www.w3.org/2000/svg" viewBox="0 0 30 26.69"><defs><style>.a{fill:#c6c6c6;}</style></defs><path class="a" d="M15,26.69a1.759,1.759,0,0,1-1.16-.436c-1.212-1.06-2.38-2.056-3.411-2.934l-.005,0a63.445,63.445,0,0,1-7.448-6.991A11.166,11.166,0,0,1,0,9.016a9.377,9.377,0,0,1,2.38-6.4A8.067,8.067,0,0,1,8.381,0a7.546,7.546,0,0,1,4.714,1.627A9.644,9.644,0,0,1,15,3.617a9.645,9.645,0,0,1,1.906-1.99A7.546,7.546,0,0,1,21.619,0a8.068,8.068,0,0,1,6,2.612A9.376,9.376,0,0,1,30,9.016a11.165,11.165,0,0,1-2.975,7.309,63.431,63.431,0,0,1-7.448,6.991c-1.033.88-2.2,1.877-3.418,2.94A1.761,1.761,0,0,1,15,26.69ZM8.381,1.757A6.329,6.329,0,0,0,3.672,3.8,7.627,7.627,0,0,0,1.757,9.016,9.4,9.4,0,0,0,4.328,15.2a62.432,62.432,0,0,0,7.235,6.775l.005,0c1.035.882,2.208,1.882,3.429,2.949,1.228-1.07,2.4-2.071,3.44-2.954A62.443,62.443,0,0,0,25.672,15.2a9.4,9.4,0,0,0,2.571-6.188A7.627,7.627,0,0,0,26.328,3.8a6.329,6.329,0,0,0-4.709-2.046,5.828,5.828,0,0,0-3.639,1.26,8.527,8.527,0,0,0-2.028,2.346,1.109,1.109,0,0,1-1.906,0,8.519,8.519,0,0,0-2.028-2.346A5.828,5.828,0,0,0,8.381,1.757Zm0,0"/></svg>